<?xml version="1.0" standalone="no"?>
<!DOCTYPE svg PUBLIC "-//W3C//DTD SVG 20010904//EN"
 "http://www.w3.org/TR/2001/REC-SVG-20010904/DTD/svg10.dtd">
<svg version="1.0" xmlns="http://www.w3.org/2000/svg"
 width="200.000000pt" height="200.000000pt" viewBox="0 0 200.000000 200.000000"
 preserveAspectRatio="xMidYMid meet">
<metadata>
Created by potrace 1.14, written by Peter Selinger 2001-2017
</metadata>
<g transform="translate(0.000000,200.000000) scale(0.100000,-0.100000)"
fill="#000000" stroke="none">
<path d="M0 1000 l0 -1000 1000 0 1000 0 0 1000 0 1000 -1000 0 -1000 0 0
-1000z m1198 666 c112 -39 180 -82 267 -170 61 -62 91 -101 123 -166 54 -106
87 -255 77 -345 -13 -120 -21 -134 -21 -35 1 176 -50 304 -170 430 -189 197
-461 243 -710 120 -170 -83 -284 -234 -323 -428 -52 -254 87 -536 320 -649
108 -53 172 -67 289 -67 98 0 85 -8 -35 -21 -90 -10 -239 23 -345 77 -115 57
-239 179 -293 288 -175 353 -41 760 308 930 118 58 178 70 320 66 96 -3 134
-9 193 -30z m439 -838 c-3 -8 -6 -5 -6 6 -1 11 2 17 5 13 3 -3 4 -12 1 -19z
m-63 -131 c78 -60 101 -175 50 -253 -41 -63 -86 -89 -158 -89 -74 0 -118 23
-161 84 -26 37 -30 52 -30 105 0 75 27 123 90 162 34 21 50 24 106 22 54 -3
73 -9 103 -31z m-397 -333 c-3 -3 -12 -4 -19 -1 -8 3 -5 6 6 6 11 1 17 -2 13
-5z"/>
</g>
</svg>
